<?xml version="1.0" standalone="no"?>
<!DOCTYPE svg PUBLIC "-//W3C//DTD SVG 20010904//EN"
 "http://www.w3.org/TR/2001/REC-SVG-20010904/DTD/svg10.dtd">
<svg version="1.0" xmlns="http://www.w3.org/2000/svg"
 width="1271.000000pt" height="1280.000000pt" viewBox="0 0 1271.000000 1280.000000"
 preserveAspectRatio="xMidYMid meet">
<metadata>
Created by potrace 1.15, written by Peter Selinger 2001-2017
</metadata>
<g transform="translate(0.000000,1280.000000) scale(0.100000,-0.100000)"
fill="#4caf50" stroke="none">
<path d="M5555 11266 c-353 -170 -775 -307 -1130 -368 -108 -18 -168 -22 -360
-22 -209 -1 -239 2 -325 23 -220 55 -412 157 -563 300 -35 33 -61 51 -67 45
-5 -5 -25 -85 -44 -179 -93 -455 -87 -659 27 -827 23 -35 49 -76 57 -92 8 -17
39 -56 69 -88 177 -192 571 -217 1076 -68 54 16 101 28 102 26 2 -1 -15 -94
-38 -207 -70 -356 -672 -3391 -979 -4934 -297 -1492 -313 -1578 -354 -1870
-38 -270 -49 -420 -44 -573 6 -158 26 -232 88 -322 20 -31 45 -71 55 -90 31
-60 102 -126 168 -156 53 -24 78 -28 175 -32 63 -3 155 1 205 8 182 25 622
146 633 174 3 8 -6 36 -19 62 -37 73 -76 207 -93 314 -31 209 -6 598 66 1040
30 178 288 1471 296 1479 8 8 29 -21 89 -124 146 -245 405 -613 590 -835 496
-597 1157 -1156 1673 -1414 126 -63 261 -114 392 -149 108 -29 126 -31 300
-31 169 -1 194 1 292 26 355 90 705 291 1128 647 148 124 602 575 751 746 564
644 1086 1396 1576 2270 50 88 100 179 112 202 l21 43 -47 30 c-27 16 -52 31
-56 33 -5 1 -1 19 9 40 10 20 16 38 13 40 -4 3 -425 245 -441 254 -3 2 -30
-36 -59 -84 -538 -896 -1602 -2214 -2162 -2678 -329 -273 -628 -404 -961 -422
-250 -13 -509 72 -782 256 -171 115 -268 195 -453 376 -310 303 -612 681 -937
1169 l-99 148 88 84 c430 410 1123 881 1780 1210 350 175 632 282 862 327 95
18 115 25 115 39 0 24 -154 331 -231 460 -112 190 -207 300 -300 350 -105 55
-299 15 -559 -117 -364 -186 -872 -561 -1436 -1062 -238 -211 -748 -720 -968
-965 -93 -104 -170 -188 -172 -188 -2 0 -1 6 1 13 3 6 70 345 149 752 80 407
323 1648 541 2759 217 1110 395 2029 395 2043 0 16 -4 23 -12 20 -7 -3 -30
-12 -50 -21 -44 -19 -44 -20 -23 74 19 84 18 90 -2 89 -10 0 -67 -24 -128 -53z"/>
</g>
</svg>
