<?xml version="1.0" standalone="no"?>
<!DOCTYPE svg PUBLIC "-//W3C//DTD SVG 20010904//EN"
 "http://www.w3.org/TR/2001/REC-SVG-20010904/DTD/svg10.dtd">
<svg version="1.0" xmlns="http://www.w3.org/2000/svg"
 width="997.000000pt" height="1280.000000pt" viewBox="0 0 997.000000 1280.000000"
 preserveAspectRatio="xMidYMid meet">
<metadata>
Created by potrace 1.15, written by Peter Selinger 2001-2017
</metadata>
<g transform="translate(0.000000,1280.000000) scale(0.100000,-0.100000)"
fill="#4caf50" stroke="none">
<path d="M5625 12534 c-644 -68 -1282 -306 -1890 -709 -581 -384 -1088 -875
-1651 -1600 -504 -649 -940 -1405 -1234 -2140 -490 -1227 -650 -2476 -465
-3633 167 -1042 624 -1942 1355 -2672 373 -373 784 -672 1232 -896 727 -364
1562 -541 2468 -521 304 7 521 26 769 68 614 103 1150 314 1621 639 633 436
1218 1139 1754 2105 64 115 116 215 116 222 0 7 -9 37 -20 66 l-21 55 -107 46
c-59 25 -114 46 -123 46 -24 0 -42 -25 -94 -129 -120 -242 -311 -566 -478
-815 -745 -1107 -1583 -1676 -2647 -1796 -257 -29 -637 -22 -930 16 -606 79
-1152 297 -1622 646 -122 91 -258 205 -258 216 0 9 192 227 278 315 102 105
339 305 495 419 453 332 603 459 761 648 191 227 311 497 346 773 20 160 9
518 -20 657 -52 251 -88 366 -165 525 -224 465 -619 716 -1058 675 -209 -20
-392 -100 -574 -252 -158 -131 -309 -330 -410 -539 l-47 -97 -61 122 c-157
309 -346 524 -580 659 -166 96 -339 141 -510 134 -60 -3 -122 -8 -137 -12 -26
-7 -26 -6 -32 46 -25 219 -34 926 -16 1245 84 1469 473 2590 1229 3537 127
159 416 451 561 567 332 265 716 456 1090 544 219 52 377 69 630 70 318 1 519
-31 760 -121 630 -235 1137 -820 1279 -1475 51 -235 69 -584 41 -813 -58 -494
-266 -913 -628 -1267 -334 -327 -671 -477 -1112 -495 -324 -13 -568 64 -754
237 -265 247 -320 693 -140 1144 25 61 33 94 27 106 -12 27 -105 100 -126 100
-16 0 -581 -379 -655 -440 -113 -92 -205 -288 -237 -500 -49 -323 24 -672 195
-924 336 -498 967 -661 1679 -434 480 153 969 479 1388 924 647 687 1000 1408
1109 2269 26 197 26 644 1 800 -91 572 -351 994 -797 1294 -243 163 -505 262
-851 322 -103 18 -172 22 -409 24 -157 2 -303 1 -325 -1z m-3549 -7189 c222
-31 403 -124 573 -294 118 -118 234 -290 301 -448 40 -95 70 -84 134 48 103
211 262 406 415 509 75 50 228 124 289 139 23 6 61 16 85 23 23 6 103 12 177
12 119 0 146 -3 229 -27 181 -54 310 -133 439 -272 208 -222 323 -563 322
-954 0 -269 -64 -470 -215 -670 -132 -175 -268 -288 -628 -523 -137 -90 -302
-202 -367 -251 -217 -161 -434 -363 -610 -568 -35 -41 -67 -75 -71 -77 -9 -4
-199 217 -298 347 -356 467 -649 1049 -847 1686 -90 288 -177 669 -228 995
-37 235 -44 294 -40 302 5 8 114 26 224 36 8 1 61 -5 116 -13z"/>
</g>
</svg>
